{"title":"The Adventures of Tintin (2011) 1080p BluRay {Dual Audio} {6Ch.}","uid":9697614,"size":2524281778,"categoryP":"video","categoryS":"hd___movies","magnet":"?xt=urn:btih:e0c53d813f3b827231a5c7dc87e444e6473d51a6&amp;dn=The+Adventures+of+Tintin+%282011%29+1080p+BluRay+%7BDual+Audio%7D+%7B6Ch.%7D&amp;tr=udp%3A%2F%2Ftracker.openbittorrent.com%3A80&amp;tr=udp%3A%2F%2Fopen.demonii.com%3A1337&amp;tr=udp%3A%2F%2Ftracker.coppersurfer.tk%3A6969&amp;tr=udp%3A%2F%2Fexodus.desync.com%3A6969","seeders":2,"leechers":1,"uploader":"SaNRiM","files":-1,"time":1393957092,"description":"Storyline\n\nHaving bought a model ship, the Unicorn, for a pound off a market stall Tintin is initially puzzled that the sinister Mr. Sakharine should be so eager to buy it from him, resorting to murder and kidnapping Tintin - accompanied by his marvellous dog Snowy - to join him and his gang as they sail to Morocco on an old cargo ship. Sakharine has bribed the crew to revolt against the ship's master, drunken Captain Haddock, but Tintin, Snowy and Haddock escape, arriving in Morocco at the court of a sheikh, who also has a model of the Unicorn. Haddock tells Tintin that over three hundred years earlier his ancestor Sir Francis Haddock was forced to scuttle the original Unicorn when attacked by a piratical forebear of Sakharine but he managed to save his treasure and provide clues to its location in three separate scrolls, all of which were secreted in models of the Unicorn. Tintin and Sakharine have one each and the villain intends to use the glass-shattering top Cs of operatic soprano the ...\n\n\n\nTorrent Info\n\nGeneral\n\nUnique ID : 173212146860039403544021707752950519725 (0x824F722F7A00620CA02781D6A8DCD7AD)\nComplete name : The Adventures of Tintin (2011) 1080p BluRay {Dual Audio} {6Ch.} [Hindi DD 5.1 Original-English DD 5.1] ~SaNRiM~.mkv\nFormat : Matroska\nFormat version : Version 4 / Version 2\nFile size : 2.34 GiB\nDuration : 1h 46mn\nOverall bit rate : 3 131 Kbps\nEncoded date : UTC 2014-02-04 15:54:37\nWriting library : libebml v1.3.0 + libmatroska v1.4.1\n\n\nVideo\n\nID : 1\nFormat : AVC\nFormat/Info : Advanced Video Codec\nFormat profile : &lt;a class=&quot;__cf_email__&quot; href=&quot;/cdn-cgi/l/email-protection&quot; data-cfemail=&quot;da92b3bdb29a96eef4ea&quot;&gt;[email&amp;#160;protected]&lt;/a&gt;&lt;script cf-hash='f9e31' type=&quot;text/javascript&quot;&gt;\n/* &lt;![CDATA[ */!function(){try{var t=&quot;currentScript&quot;in document?document.currentScript:function(){for(var t=document.getElementsByTagName(&quot;script&quot;),e=t.length;e--;)if(t[e].getAttribute(&quot;cf-hash&quot;))return t[e]}();if(t&amp;&amp;t.previousSibling){var e,r,n,i,c=t.previousSibling,a=c.getAttribute(&quot;data-cfemail&quot;);if(a){for(e=&quot;&quot;,r=parseInt(a.substr(0,2),16),n=2;a.length-n;n+=2)i=parseInt(a.substr(n,2),16)^r,e+=String.fromCharCode(i);e=document.createTextNode(e),c.parentNode.replaceChild(e,c)}}}catch(u){}}();/* ]]&gt; */&lt;/script&gt;\nFormat settings, CABAC : Yes\nFormat settings, ReFrames : 4 frames\nCodec ID : V_MPEG4/ISO/AVC\nDuration : 1h 46mn\nBit rate : 1 827 Kbps\nWidth : 1 920 pixels\nHeight : 816 pixels\nDisplay aspect ratio : 2.35:1\nFrame rate mode : Constant\nFrame rate : 23.976 fps\nColor space : YUV\nChroma subsampling : 4:2:0\nBit depth : 8 bits\nScan type : Progressive\nBits/(Pixel*Frame) : 0.049\nStream size : 1.34 GiB (57%)\nTitle : ~SaNRiM~\nWriting library : x264 core 129 r2245 bc13772\nLanguage : English\nDefault : Yes\nForced : No\n\n\nAudio #1\n\nID : 2\nFormat : AC-3\nFormat/Info : Audio Coding 3\nMode extension : CM (complete main)\nFormat settings, Endianness : Big\nCodec ID : A_AC3\nDuration : 1h 46mn\nBit rate mode : Constant\nBit rate : 640 Kbps\nChannel(s) : 6 channels\nChannel positions : Front: L C R, Side: L R, LFE\nSampling rate : 48.0 KHz\nBit depth : 16 bits\nCompression mode : Lossy\nStream size : 489 MiB (20%)\nTitle : ~SaNRiM~\nLanguage : Hindi\nDefault : No\nForced : No\n\n\nAudio #2\n\nID : 3\nFormat : AC-3\nFormat/Info : Audio Coding 3\nMode extension : CM (complete main)\nFormat settings, Endianness : Big\nCodec ID : A_AC3\nDuration : 1h 46mn\nBit rate mode : Constant\nBit rate : 640 Kbps\nChannel(s) : 6 channels\nChannel positions : Front: L C R, Side: L R, LFE\nSampling rate : 48.0 KHz\nBit depth : 16 bits\nCompression mode : Lossy\nStream size : 489 MiB (20%)\nTitle : ~SaNRiM~\nLanguage : English\nDefault : No\nForced : No\n\n\nText #1\n\nID : 4\nFormat : PGS\nMuxing mode : zlib\nCodec ID : S_HDMV/PGS\nCodec ID/Info : The same subtitle format used on BDs/HD-DVDs\nTitle : ~SaNRiM~\nLanguage : Hindi\nDefault : No\nForced : No\n\n\nText #2\n\nID : 5\nFormat : PGS\nMuxing mode : zlib\nCodec ID : S_HDMV/PGS\nCodec ID/Info : The same subtitle format used on BDs/HD-DVDs\nTitle : ~SaNRiM~\nLanguage : English\nDefault : No\nForced : No\n\n\nText #3\n\nID : 6\nFormat : PGS\nMuxing mode : zlib\nCodec ID : S_HDMV/PGS\nCodec ID/Info : The same subtitle format used on BDs/HD-DVDs\nTitle : ~SaNRiM~\nLanguage : Arabic\nDefault : No\nForced : No\n\n\n\nScreens\n &lt;a href=&quot;\nhttp://someimage.com/iw13qnS&quot; rel=&quot;nofollow&quot; target=&quot;_NEW&quot;&gt;\nhttp://someimage.com/iw13qnS&lt;/a&gt; &lt;a href=&quot;\nhttp://someimage.com/ZDKMbjU&quot; rel=&quot;nofollow&quot; target=&quot;_NEW&quot;&gt;\nhttp://someimage.com/ZDKMbjU&lt;/a&gt; &lt;a href=&quot;\nhttp://someimage.com/6rhMAvL&quot; rel=&quot;nofollow&quot; target=&quot;_NEW&quot;&gt;\nhttp://someimage.com/6rhMAvL&lt;/a&gt; &lt;a href=&quot;\nhttp://someimage.com/YaVjzl0&quot; rel=&quot;nofollow&quot; target=&quot;_NEW&quot;&gt;\nhttp://someimage.com/YaVjzl0&lt;/a&gt; &lt;a href=&quot;\nhttp://someimage.com/SSVagsQ&quot; rel=&quot;nofollow&quot; target=&quot;_NEW&quot;&gt;\nhttp://someimage.com/SSVagsQ&lt;/a&gt; &lt;a href=&quot;\nhttp://someimage.com/z0nQs1O&quot; rel=&quot;nofollow&quot; target=&quot;_NEW&quot;&gt;\nhttp://someimage.com/z0nQs1O&lt;/a&gt; &lt;a href=&quot;\nhttp://someimage.com/g7YZ2zQ&quot; rel=&quot;nofollow&quot; target=&quot;_NEW&quot;&gt;\nhttp://someimage.com/g7YZ2zQ&lt;/a&gt; &lt;a href=&quot;\nhttp://someimage.com/hNKlUba&quot; rel=&quot;nofollow&quot; target=&quot;_NEW&quot;&gt;\nhttp://someimage.com/hNKlUba&lt;/a&gt; &lt;a href=&quot;\nhttp://someimage.com/Ixa42Zh&quot; rel=&quot;nofollow&quot; target=&quot;_NEW&quot;&gt;\nhttp://someimage.com/Ixa42Zh&lt;/a&gt; &lt;a href=&quot;\nhttp://someimage.com/sVqgj7z&quot; rel=&quot;nofollow&quot; target=&quot;_NEW&quot;&gt;\nhttp://someimage.com/sVqgj7z&lt;/a&gt; &lt;a href=&quot;\nhttp://someimage.com/RoxlrdN&quot; rel=&quot;nofollow&quot; target=&quot;_NEW&quot;&gt;\nhttp://someimage.com/RoxlrdN&lt;/a&gt; &lt;a href=&quot;\nhttp://someimage.com/0IcXHqS&quot; rel=&quot;nofollow&quot; target=&quot;_NEW&quot;&gt;\nhttp://someimage.com/0IcXHqS&lt;/a&gt; &lt;a href=&quot;\nhttp://someimage.com/hDXBqsT&quot; rel=&quot;nofollow&quot; target=&quot;_NEW&quot;&gt;\nhttp://someimage.com/hDXBqsT&lt;/a&gt; &lt;a href=&quot;\nhttp://someimage.com/G3VxCSJ&quot; rel=&quot;nofollow&quot; target=&quot;_NEW&quot;&gt;\nhttp://someimage.com/G3VxCSJ&lt;/a&gt; &lt;a href=&quot;\nhttp://someimage.com/j2lEZij&quot; rel=&quot;nofollow&quot; target=&quot;_NEW&quot;&gt;\nhttp://someimage.com/j2lEZij&lt;/a&gt; &lt;a href=&quot;\nhttp://someimage.com/F1PElIP&quot; rel=&quot;nofollow&quot; target=&quot;_NEW&quot;&gt;\nhttp://someimage.com/F1PElIP&lt;/a&gt; &lt;a href=&quot;\nhttp://someimage.com/RqA57SX&quot; rel=&quot;nofollow&quot; target=&quot;_NEW&quot;&gt;\nhttp://someimage.com/RqA57SX&lt;/a&gt; &lt;a href=&quot;\nhttp://someimage.com/al8szC3&quot; rel=&quot;nofollow&quot; target=&quot;_NEW&quot;&gt;\nhttp://someimage.com/al8szC3&lt;/a&gt; &lt;a href=&quot;\nhttp://someimage.com/ATmAxuX&quot; rel=&quot;nofollow&quot; target=&quot;_NEW&quot;&gt;\nhttp://someimage.com/ATmAxuX&lt;/a&gt; &lt;a href=&quot;\nhttp://someimage.com/ZPhgcgQ&quot; rel=&quot;nofollow&quot; target=&quot;_NEW&quot;&gt;\nhttp://someimage.com/ZPhgcgQ&lt;/a&gt;\n\n\n             A BIG THANKS TO SnowDon FOR AUDIO\n\n\n                     If you like my work please comment\n                          Any request? Just PM me\n                       Please seed long after download\n                         Thank you &amp; enjoy the best\n                                 ~SaNRiM~\t","torrent":{"xt":"urn:btih:e0c53d813f3b827231a5c7dc87e444e6473d51a6","amp;dn":"The+Adventures+of+Tintin+%282011%29+1080p+BluRay+%7BDual+Audio%7D+%7B6Ch.%7D","amp;tr":["udp%3A%2F%2Ftracker.openbittorrent.com%3A80","udp%3A%2F%2Fopen.demonii.com%3A1337","udp%3A%2F%2Ftracker.coppersurfer.tk%3A6969","udp%3A%2F%2Fexodus.desync.com%3A6969"],"infoHash":"e0c53d813f3b827231a5c7dc87e444e6473d51a6","infoHashBuffer":{"type":"Buffer","data":[224,197,61,129,63,59,130,114,49,165,199,220,135,228,68,230,71,61,81,166]},"announce":[],"urlList":[]}}